<svg width="135" height="40" viewBox="0 0 135 40" fill="none" xmlns="http://www.w3.org/2000/svg">
<path d="M8.6687 39.9979C8.31988 39.9979 7.97949 39.9938 7.63341 39.9867C6.91647 39.9782 6.20121 39.9212 5.4935 39.8162C4.83359 39.7124 4.19431 39.5193 3.59676 39.2432C3.00468 38.9695 2.46466 38.6106 1.99738 38.1802C1.52334 37.7549 1.12868 37.2616 0.829041 36.7199C0.526098 36.1746 0.316443 35.5902 0.20738 34.9869C0.0896019 34.3387 0.0258789 33.6833 0.0167608 33.0262C0.00950236 32.8057 0 32.0714 0 32.0714V7.91524C0 7.91524 0.0101206 7.19223 0.016818 6.97982C0.0255486 6.32383 0.0889011 5.66941 0.206327 5.0222C0.315591 4.41729 0.525408 3.83117 0.828514 3.28415C1.12705 2.7428 1.51952 2.24915 1.99071 1.82232C2.46137 1.39143 3.00311 1.03064 3.5962 0.753121C4.19238 0.477981 4.83045 0.286241 5.48902 0.184325C6.19906 0.0782559 6.9168 0.0209098 7.63622 0.012768L8.66926 0H126.325L127.371 0.0132804C128.083 0.0210177 128.795 0.0778522 129.498 0.1833C130.163 0.286495 130.808 0.479573 131.411 0.756185C132.599 1.31547 133.566 2.20032 134.176 3.2867C134.474 3.82995 134.681 4.41128 134.789 5.01097C134.907 5.66349 134.974 6.32306 134.988 6.98442C134.991 7.28056 134.991 7.59866 134.991 7.91524C135 8.30737 135 8.68061 135 9.05692V30.942C135 31.3219 135 31.6926 134.991 32.0663C134.991 32.4064 134.991 32.7179 134.986 33.0385C134.973 33.688 134.908 34.3358 134.791 34.9767C134.684 35.5843 134.475 36.1733 134.173 36.723C133.871 37.2588 133.478 37.7478 133.01 38.172C132.542 38.6047 132.001 38.9657 131.408 39.2412C130.806 39.5194 130.163 39.7132 129.498 39.8162C128.79 39.9217 128.075 39.9788 127.358 39.9867C127.023 39.9938 126.672 39.9979 126.331 39.9979L125.09 40L8.6687 39.9979Z" fill="black"/>
<path fill-rule="evenodd" clip-rule="evenodd" d="M78.0691 29.1032C76.4343 29.1032 75.238 28.2947 75.1003 27.0632L73.1979 27.0631C73.3181 29.3092 75.1774 30.7301 77.9313 30.7301C80.8747 30.7301 82.7243 29.2751 82.7243 26.9518C82.7243 25.1354 81.6667 24.112 79.1189 23.5094L77.7507 23.1735C76.1501 22.778 75.4958 22.2614 75.4958 21.3835C75.4958 20.2819 76.5202 19.5251 78.0173 19.5251C79.5144 19.5251 80.5388 20.2731 80.6511 21.5124H82.5271C82.4666 19.3698 80.6677 17.8981 78.0427 17.8981C75.3923 17.8981 73.5252 19.3698 73.5252 21.5124C73.5252 23.2429 74.5837 24.3093 76.864 24.8601L78.4734 25.2478C80.0828 25.6433 80.7624 26.2204 80.7624 27.1843C80.7624 28.2946 79.6355 29.1032 78.0691 29.1032ZM45.6926 27.1667H40.9592L39.8225 30.5232H37.8176L42.301 18.1052H44.384L48.8674 30.5232H46.8284L45.6926 27.1667ZM41.4495 25.6179H45.2015L43.3518 20.1706H43.3L41.4495 25.6179ZM54.7717 30.6179C57.0442 30.6179 58.55 28.8103 58.55 25.9968C58.55 23.1912 57.0354 21.3748 54.7375 21.3747C53.5551 21.3366 52.4475 21.9516 51.8547 22.9753H51.8205V21.4695H50.0217V33.5183H51.8801V29.0339H51.9231C52.4907 30.0641 53.5971 30.6794 54.7717 30.6179ZM56.6399 25.9968C56.6399 24.1638 55.6926 22.9587 54.2473 22.9587C52.8274 22.9587 51.8723 24.1892 51.8723 25.9968C51.8723 27.821 52.8274 29.0427 54.2473 29.0427C55.6926 29.0427 56.6398 27.8464 56.6398 25.9968H56.6399ZM64.7366 30.6179C67.009 30.6179 68.5154 28.8103 68.5154 25.9968C68.5154 23.1912 67.0002 21.3748 64.7024 21.3747C63.52 21.3366 62.4124 21.9516 61.8195 22.9753H61.7854V21.4695H59.9865V33.5183H61.8449V29.0339H61.8879C62.4555 30.0641 63.562 30.6794 64.7366 30.6179ZM66.6047 25.9968C66.6047 24.1638 65.6575 22.9587 64.2122 22.9587C62.7922 22.9587 61.8372 24.1892 61.8372 25.9968C61.8372 27.821 62.7922 29.0427 64.2122 29.0427C65.6575 29.0427 66.6047 27.8464 66.6047 25.9968ZM86.7371 19.3269V21.4695H88.4587V22.9412H86.7371V27.9324C86.7371 28.7078 87.0818 29.0691 87.8386 29.0691C88.043 29.0655 88.2471 29.0512 88.4499 29.0261V30.489C88.1097 30.5526 87.7638 30.5813 87.4177 30.5749C85.5847 30.5749 84.8699 29.8864 84.8699 28.1306V22.9412H83.5535V21.4695H84.8698V19.3269H86.7371ZM93.7488 21.3582C91.1326 21.3582 89.4548 23.1482 89.4548 25.9968C89.4548 28.8533 91.116 30.6355 93.7488 30.6355C96.3826 30.6355 98.0437 28.8533 98.0437 25.9968C98.0437 23.1482 96.3738 21.3582 93.7488 21.3582ZM96.1502 25.9968C96.1502 24.0427 95.2546 22.8894 93.7488 22.8894C92.2429 22.8894 91.3474 24.0515 91.3474 25.9968C91.3474 27.9587 92.2429 29.1033 93.7488 29.1033C95.2546 29.1033 96.1501 27.9587 96.1502 25.9968ZM101.348 21.4695H99.5759L99.5759 30.5232H101.434V25.1531C101.372 24.6098 101.551 24.0666 101.923 23.6661C102.296 23.2656 102.824 23.0479 103.371 23.0701C103.653 23.0618 103.935 23.0997 104.206 23.1824V21.4441C103.997 21.3972 103.783 21.374 103.569 21.3747C102.548 21.3357 101.639 22.0185 101.391 23.0105H101.348V21.4695ZM112.774 27.864C112.524 29.5076 110.924 30.6355 108.876 30.6355C106.242 30.6355 104.607 28.8708 104.607 26.0398C104.607 23.1999 106.251 21.3581 108.798 21.3581C111.302 21.3581 112.878 23.0788 112.878 25.824V26.4607H106.483V26.573C106.423 27.247 106.656 27.9142 107.122 28.4049C107.588 28.8955 108.242 29.1623 108.919 29.1374C109.821 29.2219 110.671 28.7041 111.01 27.864L112.774 27.864ZM111.018 25.1619H106.492C106.49 24.5506 106.733 23.964 107.166 23.5325C107.599 23.101 108.186 22.8604 108.798 22.864C109.404 22.851 109.988 23.0915 110.41 23.5277C110.832 23.9639 111.052 24.5562 111.018 25.1619Z" fill="white"/>
<path fill-rule="evenodd" clip-rule="evenodd" d="M62.4846 8.46411H63.3733V14.7249H62.4846V8.46411ZM43.3226 9.57598C42.7787 9.00166 42.006 8.7015 41.217 8.75811H39.0618V14.725H41.217C42.9944 14.725 44.0247 13.6292 44.0247 11.723C44.1241 10.9383 43.8665 10.1503 43.3226 9.57598ZM41.1135 13.8811H39.9885V9.60132H41.1135C41.6743 9.5702 42.2197 9.79133 42.6005 10.2042C42.9813 10.6172 43.1576 11.1786 43.0813 11.7351C43.1636 12.2939 42.9898 12.8601 42.6081 13.2764C42.2263 13.6927 41.6773 13.9148 41.1135 13.8811ZM45.0715 12.4715C44.9943 11.6643 45.3813 10.8832 46.0703 10.4557C46.7592 10.0282 47.6309 10.0282 48.3199 10.4557C49.0088 10.8832 49.3958 11.6643 49.3186 12.4715C49.3973 13.2794 49.0106 14.0621 48.3211 14.4905C47.6315 14.9189 46.7586 14.9189 46.0691 14.4905C45.3795 14.0621 44.9928 13.2794 45.0715 12.4715ZM47.1965 10.9246C47.966 10.9246 48.4045 11.4954 48.4045 12.4715H48.4045C48.4045 13.4514 47.9661 14.0217 47.1965 14.0218C46.4241 14.0218 45.9895 13.4554 45.9895 12.4715C45.9895 11.4954 46.4241 10.9246 47.1965 10.9246ZM54.9641 14.7249H54.0422L53.1116 11.4085H53.0413L52.1145 14.7249H51.2014L49.9602 10.2219H50.8616L51.6682 13.6579H51.7346L52.6604 10.2219H53.5129L54.4387 13.6579H54.509L55.3118 10.2219H56.2004L54.9641 14.7249ZM58.0998 10.2219H57.2444L57.2444 14.7249H58.133V12.0906C58.1012 11.7909 58.2017 11.4923 58.4084 11.2729C58.6151 11.0536 58.9072 10.9355 59.2082 10.9495C59.8655 10.9495 60.1799 11.3093 60.1799 12.033V14.7248H61.0686V11.8098C61.1337 11.3695 60.9951 10.9235 60.6919 10.5977C60.3887 10.2719 59.9538 10.1016 59.51 10.135C58.9368 10.0884 58.3972 10.4106 58.1663 10.9373H58.0998V10.2219ZM65.6075 10.4556C64.9186 10.8832 64.5315 11.6643 64.6086 12.4715C64.5301 13.2795 64.9168 14.0621 65.6064 14.4905C66.2959 14.9189 67.1689 14.9189 67.8585 14.4905C68.548 14.0621 68.9348 13.2795 68.8562 12.4715C68.9334 11.6643 68.5463 10.8832 67.8573 10.4556C67.1683 10.0281 66.2965 10.0281 65.6075 10.4556ZM67.9416 12.4715C67.9416 11.4954 67.5032 10.9246 66.7336 10.9246C65.9612 10.9246 65.5266 11.4954 65.5266 12.4715C65.5266 13.4554 65.9612 14.0218 66.7336 14.0218C67.5032 14.0217 67.9416 13.4514 67.9416 12.4715ZM71.4665 12.1072C70.3953 12.1736 69.7917 12.6409 69.7917 13.4514C69.7933 13.8358 69.9573 14.2015 70.2432 14.4583C70.5292 14.715 70.9105 14.8388 71.2927 14.7991C71.838 14.8243 72.3547 14.5542 72.6453 14.0921H72.7156V14.7249H73.571V11.6482C73.571 10.697 72.9343 10.135 71.8054 10.135C70.7839 10.135 70.0564 10.6311 69.9656 11.4046H70.8259C70.9246 11.0862 71.2683 10.9041 71.7644 10.9041C72.3718 10.9041 72.6863 11.1726 72.6863 11.6482V12.0369L71.4665 12.1072ZM72.6863 13.0667V12.6902L71.5867 12.7605C70.9665 12.802 70.6853 13.013 70.6853 13.4099C70.6853 13.8152 71.0369 14.051 71.5203 14.051C71.8065 14.08 72.0922 13.9916 72.312 13.806C72.5318 13.6205 72.6668 13.3537 72.6863 13.0667ZM76.6081 10.1472C75.4705 10.1472 74.739 11.0486 74.739 12.4715C74.739 13.8977 75.4626 14.7991 76.6082 14.7991C77.1889 14.8205 77.7336 14.5178 78.0222 14.0134H78.0925V14.7249H78.9441V8.46411H78.0554V10.9372H77.989C77.7207 10.4286 77.1826 10.1208 76.6081 10.1472ZM75.657 12.4715C75.657 13.4265 76.1072 14.0012 76.8601 14.0012C77.6091 14.0012 78.072 13.4182 78.072 12.4754C78.072 11.5369 77.6043 10.9456 76.8601 10.9456C76.1121 10.9456 75.657 11.5242 75.657 12.4715H75.657ZM83.6196 10.4557C82.9307 10.8832 82.5436 11.6643 82.6208 12.4715C82.5422 13.2794 82.9288 14.0621 83.6184 14.4905C84.3079 14.9189 85.1809 14.9189 85.8704 14.4905C86.5599 14.0621 86.9466 13.2794 86.8679 12.4715C86.9451 11.6643 86.5581 10.8832 85.8692 10.4557C85.1803 10.0282 84.3085 10.0282 83.6196 10.4557ZM85.9538 12.4715C85.9538 11.4954 85.5154 10.9246 84.7458 10.9246C83.9734 10.9246 83.5388 11.4954 83.5388 12.4715C83.5388 13.4554 83.9734 14.0218 84.7458 14.0218C85.5154 14.0217 85.9538 13.4514 85.9538 12.4715ZM88.9158 10.2219H88.0603V14.7249H88.949V12.0906C88.9171 11.7909 89.0177 11.4923 89.2243 11.2729C89.431 11.0536 89.7231 10.9355 90.0242 10.9495C90.6814 10.9495 90.9958 11.3093 90.9958 12.033V14.7248H91.8845V11.8098C91.9497 11.3695 91.8111 10.9235 91.5079 10.5977C91.2047 10.2719 90.7697 10.1016 90.3259 10.135C89.7527 10.0884 89.2131 10.4106 88.9822 10.9373H88.9158V10.2219ZM96.906 9.10084V10.2424H97.8816V10.991H96.906V13.3064C96.906 13.7781 97.1003 13.9846 97.5427 13.9846C97.656 13.9843 97.7691 13.9774 97.8816 13.9641V14.7044C97.722 14.7329 97.5603 14.7481 97.3982 14.7498C96.4099 14.7498 96.0164 14.4021 96.0164 13.5339V10.9909H95.3015V10.2424H96.0164V9.10084H96.906ZM99.9763 8.46411H99.0955L99.0955 14.7248H99.9842V12.095C99.9567 11.786 100.067 11.4806 100.286 11.2605C100.504 11.0404 100.809 10.928 101.118 10.9534C101.746 10.9534 102.081 11.3176 102.081 12.0369V14.7249H102.97V11.8176C103.029 11.3796 102.89 10.9382 102.59 10.6135C102.29 10.2889 101.861 10.1149 101.42 10.1389C100.838 10.0917 100.289 10.4143 100.047 10.9456H99.9763V8.46411ZM108.152 13.509C107.903 14.3584 107.081 14.9072 106.201 14.8118C105.6 14.8276 105.023 14.5787 104.623 14.1312C104.222 13.6836 104.039 13.0826 104.121 12.4876C104.041 11.8909 104.224 11.2889 104.622 10.8376C105.02 10.3862 105.595 10.1299 106.197 10.135C107.45 10.135 108.206 10.991 108.206 12.405V12.7151H105.026V12.7649C104.998 13.0991 105.112 13.4296 105.34 13.6752C105.569 13.9207 105.89 14.0586 106.225 14.0549C106.66 14.1071 107.083 13.8914 107.297 13.509L108.152 13.509ZM107.301 12.0579H105.026C105.022 11.7474 105.144 11.4484 105.363 11.2288C105.583 11.0091 105.882 10.8875 106.192 10.8914C106.498 10.8843 106.794 11.007 107.005 11.2292C107.216 11.4513 107.323 11.7523 107.301 12.0579Z" fill="white"/>
<path fill-rule="evenodd" clip-rule="evenodd" d="M26.7061 7.87402C26.8067 9.1887 26.391 10.4908 25.5471 11.5039C24.7283 12.5222 23.4877 13.1088 22.1812 13.0953C22.0981 11.8185 22.5259 10.561 23.3705 9.59984C24.2258 8.62564 25.4168 8.00944 26.7061 7.87402ZM30.8382 15.5987C29.3353 16.5228 28.4104 18.1523 28.3877 19.9165C28.3898 21.9124 29.5851 23.7137 31.4234 24.4912C31.0698 25.6396 30.5369 26.725 29.8444 27.707C28.9143 29.0983 27.9391 30.4576 26.3914 30.4827C25.6553 30.4997 25.1584 30.288 24.6406 30.0674C24.1005 29.8374 23.5378 29.5976 22.6571 29.5976C21.7231 29.5976 21.1351 29.8451 20.5681 30.0837C20.078 30.29 19.6035 30.4896 18.9349 30.5174C17.4609 30.572 16.3344 29.0325 15.3705 27.6542C13.444 24.8396 11.9439 19.7222 13.955 16.2402C14.8994 14.5432 16.6652 13.4662 18.6064 13.4035C19.4424 13.3863 20.2446 13.7086 20.9479 13.991C21.4857 14.2071 21.9658 14.3999 22.3588 14.3999C22.7044 14.3999 23.171 14.2147 23.7149 13.9989C24.5715 13.6589 25.6197 13.2429 26.6878 13.355C28.3476 13.4069 29.8858 14.2384 30.8382 15.5987Z" fill="white"/>
</svg>
