<svg enable-background="new 0 0 333 305" viewBox="0 0 333 305" xmlns="http://www.w3.org/2000/svg">
    <g fill="#fff">
        <path
            d="m110.9 254c-7.5-12.2-7.5-25.8-6.2-39 2.6-27.3-7.5-48-29.4-63.7-3.4-2.4-8.4-4.5-6.6-9.9 2-5.9 7.7-5.1 12.4-5.1 13.6 0 24.1 6.1 31.9 17 3.1 4.3 5.9 8.9 8.7 13.4 17.4 27.6 33.3 30.6 59.6 10.6 18.5-14.1 36.5-28.6 58.9-36.4 13.3-4.6 27.5-6 41.4-4.1 4.6.6 9.3 2.4 9.9 7.1.7 6-4.9 5.7-9.1 6.6-33.4 7.4-56.5 30.5-79.2 53.6-19.2 19.5-35.9 41.3-53.5 62.1 36.2-49 66.2-104.7 132.9-121.7-3-7.3-8.8-5.8-13.5-5.9-20.9 0-38 10-54.6 21-10.1 6.7-19.4 14.5-29.5 21.1-29.5 19.3-52 14.1-70.6-15.8-7.3-11.7-15-22.7-29.9-25.4-2.8-.5-6.2-1.3-7.8 1.8-1.8 3.7 2 4.9 4.1 6.4 25.5 17.6 34 41.8 29.2 71.9-1.6 11.3-1 22.9.9 34.4z" />
        <path d="m1 115.8c110.3 12 220.6 6.3 331-.3-110.3 18.9-220.6 21.9-331 .3z" />
        <path
            d="m50.7 300.1 43.5-61.3c6.8 23.8 13.3 46 32.4 64.4-14.7-7.5-21.5-14.7-29.7-30.2-7.8-14.8-7.9-14.8-19-1.7-8.6 10.2-17.1 20.5-25.6 30.7-.5-.7-1-1.3-1.6-1.9z" />
        <path d="m225.6 139.7c-22.3 11.3-38.2 25.8-56.5 38.8 13.4-19.4 33.5-33.2 56.5-38.8z" />
        <path d="m194.2 144.6-30.5 27.4c7.5-12.1 17.1-21.8 30.5-27.4z" />
        <path
            d="m201.4 112.1c-18.5 3.3-37.3 4.8-56.1 4.4-18.6-.3-37-2.1-55-7.2-46.8-13.2-62.7-53.2-29.6-75.4 12.8-8.5 29-11.7 47.6-9.8 4.1.4 5.9-.3 7.7-2.7 12.5-16.5 35.8-23.2 65.3-19.3 24.1 3.2 45 17.2 52.1 35.1 1 2.6 2.5 3.8 6.7 4.6 32.3 6.1 55.2 32.2 47 53.4-3.7 9.6-13 15.5-27.2 17-14.9 1.6-27.8-2.2-37.7-10.8-13-11.4-26.4-22.5-43.5-31.2-6.6-3.2-13.4-5.9-20.4-8 15.7 1.5 29 7.1 41.8 13.7 11.4 5.9 21.4 12.9 31.3 19.9 8.7 6.2 17 7.8 26.4 5.1 9.2-2.7 12.6-7.8 12-14.9-1.4-16.2-20.8-29.7-44.1-30.4-2-.2-4.1-.2-6.1-.1-5.7.7-6.6-1.4-6.6-4.6.2-7.3-2.1-14.3-9.2-20.6-10.8-9.5-24.3-14-40.5-12.1-16.4 1.9-26.1 8.9-29.5 20.1-2.5 8.3-2.5 8.7-12.6 5.1-23-8.1-44-.9-52.2 8.9-10 12.1-4.7 30.3 12 40.5 13.9 8.5 30.3 12.3 47.3 14.9 22.4 3.5 44.8 4.4 67.1 4.3 1.9 0 4 .1 6 .1z" />
    </g>
</svg>